<mxfile host="app.diagrams.net" modified="2023-09-21T01:30:56.677Z" agent="Mozilla/5.0 (Macintosh; Intel Mac OS X 10_15_7) AppleWebKit/537.36 (KHTML, like Gecko) Chrome/116.0.0.0 Safari/537.36" version="21.7.5" etag="F2b1BQFdVZAOQAV8_1M3" type="github">
  <diagram name="Page-1" id="G_P2qfs5ZieoIzkyXATb">
    <mxGraphModel>
      <root>
        <mxCell id="0" />
        <mxCell id="1" parent="0" />
      </root>
    </mxGraphModel>
  </diagram>
</mxfile>
